<mxfile host="app.diagrams.net" modified="2021-11-10T10:06:59.473Z" agent="5.0 (Windows NT 10.0; Win64; x64) AppleWebKit/537.36 (KHTML, like Gecko) Chrome/95.0.4638.69 Safari/537.36" etag="TTJkRdkhd8rYnpN-RQ7J" version="15.7.1" type="github">
  <diagram id="Y5ayYzm84oArncc1eEie" name="Page-1">
    <mxGraphModel dx="2062" dy="1122" grid="1" gridSize="10" guides="1" tooltips="1" connect="1" arrows="1" fold="1" page="1" pageScale="1" pageWidth="827" pageHeight="1169" math="0" shadow="0">
      <root>
        <mxCell id="0" />
        <mxCell id="1" parent="0" />
        <mxCell id="43eiuCzdjsXG8UU21c2d-8" style="edgeStyle=orthogonalEdgeStyle;rounded=0;orthogonalLoop=1;jettySize=auto;html=1;exitX=1;exitY=0.5;exitDx=0;exitDy=0;entryX=0;entryY=0.5;entryDx=0;entryDy=0;startArrow=classic;startFill=1;" edge="1" parent="1" source="43eiuCzdjsXG8UU21c2d-1" target="43eiuCzdjsXG8UU21c2d-2">
          <mxGeometry relative="1" as="geometry" />
        </mxCell>
        <mxCell id="43eiuCzdjsXG8UU21c2d-9" style="edgeStyle=orthogonalEdgeStyle;rounded=0;orthogonalLoop=1;jettySize=auto;html=1;exitX=1;exitY=0.5;exitDx=0;exitDy=0;entryX=0;entryY=0.5;entryDx=0;entryDy=0;" edge="1" parent="1" source="43eiuCzdjsXG8UU21c2d-1" target="43eiuCzdjsXG8UU21c2d-3">
          <mxGeometry relative="1" as="geometry" />
        </mxCell>
        <mxCell id="43eiuCzdjsXG8UU21c2d-10" style="edgeStyle=orthogonalEdgeStyle;rounded=0;orthogonalLoop=1;jettySize=auto;html=1;exitX=0;exitY=0.5;exitDx=0;exitDy=0;entryX=1;entryY=0.5;entryDx=0;entryDy=0;startArrow=classic;startFill=1;" edge="1" parent="1" source="43eiuCzdjsXG8UU21c2d-1" target="43eiuCzdjsXG8UU21c2d-5">
          <mxGeometry relative="1" as="geometry" />
        </mxCell>
        <mxCell id="43eiuCzdjsXG8UU21c2d-13" style="edgeStyle=orthogonalEdgeStyle;rounded=0;orthogonalLoop=1;jettySize=auto;html=1;exitX=0.5;exitY=0;exitDx=0;exitDy=0;entryX=0.5;entryY=1;entryDx=0;entryDy=0;startArrow=classic;startFill=1;" edge="1" parent="1" source="43eiuCzdjsXG8UU21c2d-1" target="43eiuCzdjsXG8UU21c2d-7">
          <mxGeometry relative="1" as="geometry" />
        </mxCell>
        <mxCell id="43eiuCzdjsXG8UU21c2d-15" style="edgeStyle=orthogonalEdgeStyle;rounded=0;orthogonalLoop=1;jettySize=auto;html=1;exitX=0.5;exitY=0;exitDx=0;exitDy=0;entryX=0.5;entryY=1;entryDx=0;entryDy=0;startArrow=classic;startFill=1;" edge="1" parent="1" source="43eiuCzdjsXG8UU21c2d-1" target="43eiuCzdjsXG8UU21c2d-14">
          <mxGeometry relative="1" as="geometry" />
        </mxCell>
        <mxCell id="43eiuCzdjsXG8UU21c2d-1" value="Home Page" style="rounded=0;whiteSpace=wrap;html=1;" vertex="1" parent="1">
          <mxGeometry x="330" y="330" width="120" height="60" as="geometry" />
        </mxCell>
        <mxCell id="43eiuCzdjsXG8UU21c2d-2" value="Login" style="rounded=0;whiteSpace=wrap;html=1;" vertex="1" parent="1">
          <mxGeometry x="520" y="280" width="120" height="60" as="geometry" />
        </mxCell>
        <mxCell id="43eiuCzdjsXG8UU21c2d-3" value="Register" style="rounded=0;whiteSpace=wrap;html=1;" vertex="1" parent="1">
          <mxGeometry x="520" y="390" width="120" height="60" as="geometry" />
        </mxCell>
        <mxCell id="43eiuCzdjsXG8UU21c2d-11" style="edgeStyle=orthogonalEdgeStyle;rounded=0;orthogonalLoop=1;jettySize=auto;html=1;exitX=0.5;exitY=1;exitDx=0;exitDy=0;entryX=0.5;entryY=0;entryDx=0;entryDy=0;startArrow=none;startFill=0;" edge="1" parent="1" source="43eiuCzdjsXG8UU21c2d-5" target="43eiuCzdjsXG8UU21c2d-6">
          <mxGeometry relative="1" as="geometry" />
        </mxCell>
        <mxCell id="43eiuCzdjsXG8UU21c2d-5" value="Cart" style="rounded=0;whiteSpace=wrap;html=1;" vertex="1" parent="1">
          <mxGeometry x="160" y="330" width="120" height="60" as="geometry" />
        </mxCell>
        <mxCell id="43eiuCzdjsXG8UU21c2d-12" style="edgeStyle=orthogonalEdgeStyle;rounded=0;orthogonalLoop=1;jettySize=auto;html=1;exitX=1;exitY=0.5;exitDx=0;exitDy=0;entryX=0.5;entryY=1;entryDx=0;entryDy=0;startArrow=none;startFill=0;" edge="1" parent="1" source="43eiuCzdjsXG8UU21c2d-6" target="43eiuCzdjsXG8UU21c2d-1">
          <mxGeometry relative="1" as="geometry" />
        </mxCell>
        <mxCell id="43eiuCzdjsXG8UU21c2d-6" value="Check Out" style="rounded=0;whiteSpace=wrap;html=1;" vertex="1" parent="1">
          <mxGeometry x="160" y="450" width="120" height="60" as="geometry" />
        </mxCell>
        <mxCell id="43eiuCzdjsXG8UU21c2d-7" value="Admin" style="rounded=0;whiteSpace=wrap;html=1;" vertex="1" parent="1">
          <mxGeometry x="414" y="190" width="120" height="60" as="geometry" />
        </mxCell>
        <mxCell id="43eiuCzdjsXG8UU21c2d-14" value="Create Item" style="rounded=0;whiteSpace=wrap;html=1;" vertex="1" parent="1">
          <mxGeometry x="240" y="190" width="120" height="60" as="geometry" />
        </mxCell>
      </root>
    </mxGraphModel>
  </diagram>
</mxfile>
